<svg xmlns="http://www.w3.org/2000/svg" viewBox="0 0 640 360" role="img" aria-labelledby="title desc"><title id="title">captains chair straight leg raise</title><desc id="desc">PhysioCoach-owned push movement illustration, variant 6.</desc><defs><linearGradient id="bg" x1="0" y1="0" x2="1" y2="1"><stop stop-color="#e9f9f8"/><stop offset="1" stop-color="#d8efed"/></linearGradient></defs><rect width="640" height="360" rx="28" fill="url(#bg)"/><path d="M72 310H568" stroke="#b6ced8" stroke-width="4" stroke-linecap="round"/><g><path d="M155 118H485" stroke="#3caaa8" stroke-width="9" stroke-linecap="round"/><path d="M205 104V132M435 104V132" stroke="#3caaa8" stroke-width="8"/><circle cx="320" cy="72" r="25" fill="#ffcf9d" stroke="#17324d" stroke-width="8"/><path d="M300 110 Q320 94 340 110 L348 190 Q320 206 292 190 Z" fill="#3caaa8" stroke="#17324d" stroke-width="8"/><path d="M300 122 L240 145 L185 126" fill="none" stroke="#17324d" stroke-width="16" stroke-linecap="round" stroke-linejoin="round"/><path d="M340 122 L400 145 L455 126" fill="none" stroke="#17324d" stroke-width="16" stroke-linecap="round" stroke-linejoin="round"/><path d="M300 190 L270 250 L245 294" fill="none" stroke="#17324d" stroke-width="16" stroke-linecap="round" stroke-linejoin="round"/><path d="M340 190 L375 250 L400 294" fill="none" stroke="#17324d" stroke-width="16" stroke-linecap="round" stroke-linejoin="round"/><circle cx="312" cy="68" r="3" fill="#17324d"/><path d="M318 82Q328 88 335 80" fill="none" stroke="#17324d" stroke-width="3"/></g><rect x="36" y="28" width="158" height="30" rx="15" fill="#17324d" opacity=".92"/><text x="115" y="49" text-anchor="middle" font-family="Arial,sans-serif" font-size="14" font-weight="700" fill="#fff" letter-spacing="1">PHYSIOCOACH</text><text x="36" y="342" font-family="Arial,sans-serif" font-size="15" font-weight="700" fill="#17324d">captains chair straight leg raise</text><text x="604" y="48" text-anchor="end" font-family="Arial,sans-serif" font-size="13" font-weight="700" fill="#3caaa8">PUSH</text></svg>